<svg width="30" height="30" viewBox="0 0 30 30" fill="none" xmlns="http://www.w3.org/2000/svg">
<g opacity="0.8">
<path d="M8.75 22.5H27.5M8.75 15H27.5H8.75ZM8.75 7.5H27.5H8.75Z" stroke="black" stroke-width="2" stroke-miterlimit="10"/>
<path d="M3.75 13.125C3.25272 13.125 2.77581 13.3225 2.42417 13.6742C2.07254 14.0258 1.875 14.5027 1.875 15C1.875 15.4973 2.07254 15.9742 2.42417 16.3258C2.77581 16.6775 3.25272 16.875 3.75 16.875C4.24728 16.875 4.72419 16.6775 5.07583 16.3258C5.42746 15.9742 5.625 15.4973 5.625 15C5.625 14.5027 5.42746 14.0258 5.07583 13.6742C4.72419 13.3225 4.24728 13.125 3.75 13.125ZM3.75 20.625C3.25272 20.625 2.77581 20.8225 2.42417 21.1742C2.07254 21.5258 1.875 22.0027 1.875 22.5C1.875 22.9973 2.07254 23.4742 2.42417 23.8258C2.77581 24.1775 3.25272 24.375 3.75 24.375C4.24728 24.375 4.72419 24.1775 5.07583 23.8258C5.42746 23.4742 5.625 22.9973 5.625 22.5C5.625 22.0027 5.42746 21.5258 5.07583 21.1742C4.72419 20.8225 4.24728 20.625 3.75 20.625ZM3.75 5.625C3.25272 5.625 2.77581 5.82254 2.42417 6.17417C2.07254 6.52581 1.875 7.00272 1.875 7.5C1.875 7.99728 2.07254 8.47419 2.42417 8.82583C2.77581 9.17746 3.25272 9.375 3.75 9.375C4.24728 9.375 4.72419 9.17746 5.07583 8.82583C5.42746 8.47419 5.625 7.99728 5.625 7.5C5.625 7.00272 5.42746 6.52581 5.07583 6.17417C4.72419 5.82254 4.24728 5.625 3.75 5.625Z" fill="black"/>
</g>
</svg>
