<svg width="30" height="30" viewBox="0 0 30 30" fill="none" xmlns="http://www.w3.org/2000/svg">
<path d="M25 2.5H21.25C20.56 2.5 20 3.06 20 3.75V7.5C20 8.19 20.56 8.75 21.25 8.75H25C25.69 8.75 26.25 8.19 26.25 7.5V3.75C26.25 3.06 25.69 2.5 25 2.5ZM7.5 2.5H3.75C3.06 2.5 2.5 3.06 2.5 3.75V7.5C2.5 8.19 3.06 8.75 3.75 8.75H7.5C8.19 8.75 8.75 8.19 8.75 7.5V3.75C8.75 3.06 8.19 2.5 7.5 2.5ZM25 20H21.25C20.56 20 20 20.56 20 21.25V25C20 25.69 20.56 26.25 21.25 26.25H25C25.69 26.25 26.25 25.69 26.25 25V21.25C26.25 20.56 25.69 20 25 20ZM7.5 20H3.75C3.06 20 2.5 20.56 2.5 21.25V25C2.5 25.69 3.06 26.25 3.75 26.25H7.5C8.19 26.25 8.75 25.69 8.75 25V21.25C8.75 20.56 8.19 20 7.5 20ZM16.25 11.25H12.5C11.81 11.25 11.25 11.81 11.25 12.5V16.25C11.25 16.94 11.81 17.5 12.5 17.5H16.25C16.94 17.5 17.5 16.94 17.5 16.25V12.5C17.5 11.81 16.94 11.25 16.25 11.25ZM25 11.25H21.25C20.56 11.25 20 11.81 20 12.5V16.25C20 16.94 20.56 17.5 21.25 17.5H25C25.69 17.5 26.25 16.94 26.25 16.25V12.5C26.25 11.81 25.69 11.25 25 11.25ZM16.25 2.5H12.5C11.81 2.5 11.25 3.06 11.25 3.75V7.5C11.25 8.19 11.81 8.75 12.5 8.75H16.25C16.94 8.75 17.5 8.19 17.5 7.5V3.75C17.5 3.06 16.94 2.5 16.25 2.5ZM16.25 20H12.5C11.81 20 11.25 20.56 11.25 21.25V25C11.25 25.69 11.81 26.25 12.5 26.25H16.25C16.94 26.25 17.5 25.69 17.5 25V21.25C17.5 20.56 16.94 20 16.25 20ZM7.5 11.25H3.75C3.06 11.25 2.5 11.81 2.5 12.5V16.25C2.5 16.94 3.06 17.5 3.75 17.5H7.5C8.19 17.5 8.75 16.94 8.75 16.25V12.5C8.75 11.81 8.19 11.25 7.5 11.25Z" fill="black"/>
</svg>
