<svg width="29" height="29" viewBox="0 0 29 29" fill="none" xmlns="http://www.w3.org/2000/svg">
<path d="M14.5 0C6.50483 0 0 6.50483 0 14.5C0 22.4952 6.50483 29 14.5 29C22.4958 29 29 22.4952 29 14.5C29 6.50483 22.4958 0 14.5 0ZM20.7873 17.359C22.1976 18.6111 22.4908 19.058 22.5387 19.1343C23.1231 20.0611 21.8906 20.1739 21.8906 20.1739H19.2932C19.2932 20.1739 18.6609 20.1808 18.1206 19.8228C17.2399 19.2459 16.3175 18.1275 15.6695 18.3217C15.1254 18.4843 15.1304 19.2194 15.1304 19.848C15.1304 20.073 14.9369 20.1739 14.5 20.1739C14.0631 20.1739 13.8815 20.1739 13.688 20.1739C12.2651 20.1739 10.7212 19.6948 9.18102 18.0853C7.00224 15.81 5.09139 11.2268 5.09139 11.2268C5.09139 11.2268 4.97854 10.996 5.10148 10.8555C5.2408 10.6978 5.6197 10.718 5.6197 10.718L8.13828 10.7174C8.13828 10.7174 8.37533 10.7622 8.54554 10.8819C8.68613 10.9803 8.76431 11.1682 8.76431 11.1682C8.76431 11.1682 9.18733 12.5652 9.72635 13.456C10.7792 15.1947 11.269 15.2389 11.6265 15.0516C12.1485 14.7805 11.9783 12.9321 11.9783 12.9321C11.9783 12.9321 12.0016 12.1384 11.7292 11.7847C11.5193 11.5111 11.1177 11.3655 10.9425 11.3428C10.8006 11.3245 11.0377 11.0761 11.3396 10.9343C11.7431 10.7546 12.2922 10.7086 13.2391 10.7174C13.9761 10.7243 14.1886 10.7685 14.476 10.8347C15.3454 11.0351 15.1304 11.5641 15.1304 13.4213C15.1304 14.0165 15.0485 14.853 15.4973 15.1304C15.6909 15.2502 16.3541 15.3965 17.5343 13.48C18.0947 12.5709 18.5405 11.0629 18.5405 11.0629C18.5405 11.0629 18.6325 10.8971 18.7756 10.8151C18.9219 10.7313 18.9175 10.7332 19.1179 10.7332C19.3184 10.7332 21.3289 10.7174 21.7702 10.7174C22.2108 10.7174 22.6244 10.7123 22.6957 10.9708C22.7978 11.3422 22.3703 12.6144 21.2873 13.995C19.5075 16.2608 19.3102 16.049 20.7873 17.359Z" fill="black"/>
</svg>
