<svg width="30" height="30" viewBox="0 0 30 30" fill="none" xmlns="http://www.w3.org/2000/svg">
<g opacity="0.6">
<path d="M19.4011 16.25H9.18489V13.75H19.4011L22.8736 7.5H6.54614V5H24.9986C25.4411 5 25.8511 5.235 26.0761 5.61625C26.3011 5.99875 26.3074 6.47 26.0911 6.8575L21.5874 14.9637C21.1474 15.7562 20.3099 16.25 19.4011 16.25Z" fill="black"/>
<path d="M23.7501 21.25H8.67763C7.73513 21.25 6.86513 20.7375 6.40763 19.9137C5.95013 19.09 5.97638 18.08 6.47638 17.28L7.97263 14.885L3.85513 5.00372L1.26638 5.01622L1.25513 2.51622L5.51888 2.49622L10.7764 15.115L8.59638 18.6037L8.67763 18.75H23.7501V21.25ZM21.2501 22.5C20.5871 22.5 19.9512 22.7634 19.4824 23.2322C19.0135 23.701 18.7501 24.3369 18.7501 25C18.7501 25.663 19.0135 26.2989 19.4824 26.7677C19.9512 27.2366 20.5871 27.5 21.2501 27.5C21.9132 27.5 22.5491 27.2366 23.0179 26.7677C23.4867 26.2989 23.7501 25.663 23.7501 25C23.7501 24.3369 23.4867 23.701 23.0179 23.2322C22.5491 22.7634 21.9132 22.5 21.2501 22.5ZM8.75013 22.5C8.08709 22.5 7.4512 22.7634 6.98236 23.2322C6.51352 23.701 6.25013 24.3369 6.25013 25C6.25013 25.663 6.51352 26.2989 6.98236 26.7677C7.4512 27.2366 8.08709 27.5 8.75013 27.5C9.41317 27.5 10.0491 27.2366 10.5179 26.7677C10.9867 26.2989 11.2501 25.663 11.2501 25C11.2501 24.3369 10.9867 23.701 10.5179 23.2322C10.0491 22.7634 9.41317 22.5 8.75013 22.5Z" fill="black"/>
</g>
</svg>
