<svg width="20" height="20" viewBox="0 0 20 20" fill="none" xmlns="http://www.w3.org/2000/svg">
<g opacity="0.6">
<path d="M13.7501 2.5C11.3376 2.5 10.0001 4.24167 10.0001 4.24167C10.0001 4.24167 8.66258 2.5 6.25008 2.5C3.71841 2.5 1.66675 4.55167 1.66675 7.08333C1.66675 10.5592 5.76008 13.9275 6.90091 14.9917C8.21508 16.2167 10.0001 17.7917 10.0001 17.7917C10.0001 17.7917 11.7851 16.2167 13.0992 14.9917C14.2401 13.9275 18.3334 10.5592 18.3334 7.08333C18.3334 4.55167 16.2817 2.5 13.7501 2.5ZM12.3426 13.425C12.1951 13.5583 12.0667 13.6742 11.9626 13.7717C11.3367 14.355 10.5967 15.0242 10.0001 15.5592C9.40341 15.0242 8.66258 14.3542 8.03758 13.7717C7.93258 13.6742 7.80425 13.5575 7.65758 13.425C6.47425 12.3558 3.33341 9.51583 3.33341 7.08333C3.33341 5.475 4.64175 4.16667 6.25008 4.16667C7.77258 4.16667 8.65508 5.22917 8.67841 5.25667L10.0001 6.66667L11.3217 5.25667C11.3301 5.24583 12.2276 4.16667 13.7501 4.16667C15.3584 4.16667 16.6667 5.475 16.6667 7.08333C16.6667 9.51583 13.5259 12.3558 12.3426 13.425Z" fill="black"/>
</g>
</svg>
