<svg width="25" height="25" viewBox="0 0 25 25" fill="none" xmlns="http://www.w3.org/2000/svg">
<g opacity="0.6">
<path d="M22.9166 20.8333L20.8333 22.9166L14.5833 16.6666V14.5833H16.6666L22.9166 20.8333Z" fill="black"/>
<path d="M9.375 3.125C7.7174 3.125 6.12769 3.78348 4.95558 4.95558C3.78348 6.12769 3.125 7.7174 3.125 9.375C3.125 11.0326 3.78348 12.6223 4.95558 13.7944C6.12769 14.9665 7.7174 15.625 9.375 15.625C11.0326 15.625 12.6223 14.9665 13.7944 13.7944C14.9665 12.6223 15.625 11.0326 15.625 9.375C15.625 7.7174 14.9665 6.12769 13.7944 4.95558C12.6223 3.78348 11.0326 3.125 9.375 3.125V3.125Z" stroke="black" stroke-width="2" stroke-miterlimit="10"/>
<path d="M13.5417 13.5417L16.1459 16.1459" stroke="black" stroke-miterlimit="10"/>
</g>
</svg>
