<svg width="60" height="60" viewBox="0 0 60 60" fill="none" xmlns="http://www.w3.org/2000/svg">
<g opacity="0.7">
<path d="M18.12 28.4401L28.8 38.4001L52.8 10.0801" stroke="black" stroke-width="2" stroke-miterlimit="10"/>
<path d="M53.2368 15.1343L51.5928 17.0747C53.8668 20.8595 55.2 25.2719 55.2 29.9999C55.2 43.8947 43.8948 55.1999 30 55.1999C16.1052 55.1999 4.80002 43.8947 4.80002 29.9999C4.80002 16.1051 16.1052 4.7999 30 4.7999C36.5316 4.7999 42.4716 7.3187 46.9536 11.4107L48.5244 9.5579C43.6224 5.1119 37.122 2.3999 30 2.3999C14.7804 2.3999 2.40002 14.7803 2.40002 29.9999C2.40002 45.2195 14.7804 57.5999 30 57.5999C45.2196 57.5999 57.6 45.2195 57.6 29.9999C57.6 24.5279 55.9932 19.4279 53.2368 15.1343Z" fill="black"/>
</g>
</svg>
