<svg width="25" height="25" viewBox="0 0 25 25" fill="none" xmlns="http://www.w3.org/2000/svg">
<g opacity="0.6">
<path d="M17.1874 3.125C14.1718 3.125 12.4999 5.30208 12.4999 5.30208C12.4999 5.30208 10.828 3.125 7.81242 3.125C4.64784 3.125 2.08325 5.68958 2.08325 8.85417C2.08325 13.199 7.19992 17.4094 8.62596 18.7396C10.2687 20.2708 12.4999 22.2396 12.4999 22.2396C12.4999 22.2396 14.7312 20.2708 16.3739 18.7396C17.7999 17.4094 22.9166 13.199 22.9166 8.85417C22.9166 5.68958 20.352 3.125 17.1874 3.125ZM15.428 16.7812C15.2437 16.9479 15.0833 17.0927 14.953 17.2146C14.1708 17.9437 13.2458 18.7802 12.4999 19.449C11.7541 18.7802 10.828 17.9427 10.0468 17.2146C9.91554 17.0927 9.75513 16.9469 9.57179 16.7812C8.09263 15.4448 4.16659 11.8948 4.16659 8.85417C4.16659 6.84375 5.802 5.20833 7.81242 5.20833C9.71554 5.20833 10.8187 6.53646 10.8478 6.57083L12.4999 8.33333L14.152 6.57083C14.1624 6.55729 15.2843 5.20833 17.1874 5.20833C19.1978 5.20833 20.8333 6.84375 20.8333 8.85417C20.8333 11.8948 16.9072 15.4448 15.428 16.7812Z" fill="black"/>
</g>
</svg>
